<svg width="136" height="25" viewBox="0 0 136 25" fill="none" xmlns="http://www.w3.org/2000/svg">
<path d="M10.8586 5.51228C11.2178 4.40671 12.7819 4.40671 13.1412 5.51229L14.4246 9.46244C14.5853 9.95687 15.046 10.2916 15.5659 10.2916H19.7193C20.8818 10.2916 21.3651 11.7792 20.4247 12.4624L17.0645 14.9038C16.6439 15.2093 16.4679 15.751 16.6286 16.2454L17.912 20.1956C18.2713 21.3011 17.0059 22.2205 16.0654 21.5372L12.7052 19.0959C12.2846 18.7903 11.7151 18.7903 11.2945 19.0959L7.93434 21.5372C6.99388 22.2205 5.72851 21.3011 6.08773 20.1956L7.37121 16.2454C7.53186 15.751 7.35587 15.2093 6.93529 14.9038L3.57508 12.4624C2.63463 11.7792 3.11796 10.2916 4.28043 10.2916H8.43387C8.95374 10.2916 9.41448 9.95687 9.57513 9.46244L10.8586 5.51228Z" fill="#FAC02C"/>
<path d="M38.8586 5.51228C39.2178 4.40671 40.7819 4.40671 41.1412 5.51229L42.4246 9.46244C42.5853 9.95687 43.046 10.2916 43.5659 10.2916H47.7193C48.8818 10.2916 49.3651 11.7792 48.4247 12.4624L45.0645 14.9038C44.6439 15.2093 44.4679 15.751 44.6286 16.2454L45.912 20.1956C46.2713 21.3011 45.0059 22.2205 44.0654 21.5372L40.7052 19.0959C40.2846 18.7903 39.7151 18.7903 39.2945 19.0959L35.9343 21.5372C34.9939 22.2205 33.7285 21.3011 34.0877 20.1956L35.3712 16.2454C35.5319 15.751 35.3559 15.2093 34.9353 14.9038L31.5751 12.4624C30.6346 11.7792 31.118 10.2916 32.2804 10.2916H36.4339C36.9537 10.2916 37.4145 9.95687 37.5751 9.46244L38.8586 5.51228Z" fill="#FAC02C"/>
<path d="M66.8586 5.51228C67.2178 4.40671 68.7819 4.40671 69.1412 5.51229L70.4246 9.46244C70.5853 9.95687 71.046 10.2916 71.5659 10.2916H75.7193C76.8818 10.2916 77.3651 11.7792 76.4247 12.4624L73.0645 14.9038C72.6439 15.2093 72.4679 15.751 72.6286 16.2454L73.912 20.1956C74.2713 21.3011 73.0059 22.2205 72.0654 21.5372L68.7052 19.0959C68.2846 18.7903 67.7151 18.7903 67.2945 19.0959L63.9343 21.5372C62.9939 22.2205 61.7285 21.3011 62.0877 20.1956L63.3712 16.2454C63.5319 15.751 63.3559 15.2093 62.9353 14.9038L59.5751 12.4624C58.6346 11.7792 59.118 10.2916 60.2804 10.2916H64.4339C64.9537 10.2916 65.4145 9.95687 65.5751 9.46244L66.8586 5.51228Z" fill="#FAC02C"/>
<path d="M94.8586 5.51228C95.2178 4.40671 96.7819 4.40671 97.1412 5.51229L98.4246 9.46244C98.5853 9.95687 99.046 10.2916 99.5659 10.2916H103.719C104.882 10.2916 105.365 11.7792 104.425 12.4624L101.064 14.9038C100.644 15.2093 100.468 15.751 100.629 16.2454L101.912 20.1956C102.271 21.3011 101.006 22.2205 100.065 21.5372L96.7052 19.0959C96.2846 18.7903 95.7151 18.7903 95.2945 19.0959L91.9343 21.5372C90.9939 22.2205 89.7285 21.3011 90.0877 20.1956L91.3712 16.2454C91.5319 15.751 91.3559 15.2093 90.9353 14.9038L87.5751 12.4624C86.6346 11.7792 87.118 10.2916 88.2804 10.2916H92.4339C92.9537 10.2916 93.4145 9.95687 93.5751 9.46244L94.8586 5.51228Z" fill="#FAC02C"/>
<path d="M122.859 5.51228C123.218 4.40671 124.782 4.40671 125.141 5.51229L126.425 9.46244C126.585 9.95687 127.046 10.2916 127.566 10.2916H131.719C132.882 10.2916 133.365 11.7792 132.425 12.4624L129.064 14.9038C128.644 15.2093 128.468 15.751 128.629 16.2454L129.912 20.1956C130.271 21.3011 129.006 22.2205 128.065 21.5372L124.705 19.0959C124.285 18.7903 123.715 18.7903 123.295 19.0959L119.934 21.5372C118.994 22.2205 117.729 21.3011 118.088 20.1956L119.371 16.2454C119.532 15.751 119.356 15.2093 118.935 14.9038L115.575 12.4624C114.635 11.7792 115.118 10.2916 116.28 10.2916H120.434C120.954 10.2916 121.414 9.95687 121.575 9.46244L122.859 5.51228Z" fill="#FAC02C"/>
</svg>
