<svg width="24" height="25" viewBox="0 0 24 25" fill="none" xmlns="http://www.w3.org/2000/svg">
<path fill-rule="evenodd" clip-rule="evenodd" d="M21.6 0.299805H2.4C1.07452 0.299805 0 1.37432 0 2.6998V21.8998C0 23.2253 1.07452 24.2998 2.4 24.2998H21.6C22.9255 24.2998 24 23.2253 24 21.8998V2.6998C24 1.37432 22.9255 0.299805 21.6 0.299805ZM12.0004 15.2643V24.2996H15.6004V15.2643H18.6759L19.1693 11.8761H15.6004V10.4282C15.6004 9.12935 15.9668 8.48784 17.2072 8.48784H19.2004V5.24756L19.1794 5.24478C18.8207 5.19731 18.0824 5.09961 16.7103 5.09961C13.788 5.09961 12.0004 6.61189 12.0004 10.0566V11.8761H8.40039V15.2643H12.0004Z" fill="white"/>
</svg>
