<svg width="24" height="25" viewBox="0 0 24 25" fill="none" xmlns="http://www.w3.org/2000/svg">
<g clip-path="url(#clip0_13001_1482)">
<path fill-rule="evenodd" clip-rule="evenodd" d="M2.96792e-07 2.3049C2.96792e-07 1.77312 0.21125 1.26311 0.587278 0.887085C0.963305 0.511057 1.47331 0.299807 2.00509 0.299807H21.9927C22.2563 0.299377 22.5173 0.350931 22.7609 0.451516C23.0045 0.552102 23.2258 0.699745 23.4123 0.885992C23.5987 1.07224 23.7466 1.29343 23.8475 1.53691C23.9483 1.78038 24.0001 2.04136 24 2.3049V22.2925C24.0003 22.5561 23.9486 22.8172 23.8479 23.0608C23.7472 23.3044 23.5994 23.5257 23.4131 23.7121C23.2268 23.8986 23.0055 24.0464 22.762 24.1473C22.5184 24.2481 22.2574 24.2999 21.9938 24.2998H2.00509C1.74169 24.2998 1.48086 24.2479 1.23752 24.1471C0.994184 24.0462 0.773096 23.8984 0.586892 23.7121C0.400688 23.5258 0.253017 23.3047 0.152316 23.0613C0.0516145 22.8179 -0.000143013 22.557 2.96792e-07 22.2936V2.3049ZM9.49964 9.45035H12.7495V11.0824C13.2185 10.1442 14.4185 9.29981 16.2218 9.29981C19.6789 9.29981 20.4982 11.1685 20.4982 14.5973V20.9485H16.9996V15.3784C16.9996 13.4256 16.5305 12.3238 15.3393 12.3238C13.6865 12.3238 12.9993 13.5118 12.9993 15.3784V20.9485H9.49964V9.45035ZM3.49964 20.7991H6.99927V9.29981H3.49964V20.798V20.7991ZM7.5 5.54926C7.5066 5.8489 7.45328 6.14685 7.34317 6.4256C7.23306 6.70436 7.06838 6.95832 6.8588 7.17257C6.64921 7.38682 6.39894 7.55705 6.12268 7.67327C5.84641 7.78949 5.54972 7.84935 5.25 7.84935C4.95028 7.84935 4.65359 7.78949 4.37732 7.67327C4.10106 7.55705 3.85079 7.38682 3.6412 7.17257C3.43162 6.95832 3.26694 6.70436 3.15683 6.4256C3.04672 6.14685 2.9934 5.8489 3 5.54926C3.01295 4.9611 3.25569 4.4014 3.67624 3.99001C4.09678 3.57862 4.6617 3.34826 5.25 3.34826C5.8383 3.34826 6.40322 3.57862 6.82376 3.99001C7.24431 4.4014 7.48705 4.9611 7.5 5.54926Z" fill="white"/>
</g>
<defs>
<clipPath id="clip0_13001_1482">
<rect width="24" height="24" fill="white" transform="translate(0 0.299805)"/>
</clipPath>
</defs>
</svg>
