<svg width="24" height="25" viewBox="0 0 24 25" fill="none" xmlns="http://www.w3.org/2000/svg">
<path fill-rule="evenodd" clip-rule="evenodd" d="M2 0.299805C0.895431 0.299805 0 1.19523 0 2.2998V22.2998C0 23.4044 0.89543 24.2998 2 24.2998H22C23.1046 24.2998 24 23.4044 24 22.2998V2.2998C24 1.19524 23.1046 0.299805 22 0.299805H2ZM17.6089 6.2998L13.1417 11.3811H13.1414L18 18.2998H14.4267L11.155 13.6407L7.0587 18.2998H6L10.6849 12.9714L6 6.2998H9.57333L12.6714 10.7117L16.5502 6.2998H17.6089ZM11.2169 12.3658L11.6917 13.0301V13.0304L14.9248 17.5554H16.5507L12.5887 12.0101L12.114 11.3458L9.06621 7.07962H7.44012L11.2169 12.3658Z" fill="white"/>
</svg>
