<svg width="16" height="17" viewBox="0 0 16 17" fill="none" xmlns="http://www.w3.org/2000/svg">
<path fill-rule="evenodd" clip-rule="evenodd" d="M8 16.7998C12.4183 16.7998 16 13.2181 16 8.7998C16 4.38153 12.4183 0.799805 8 0.799805C3.58172 0.799805 0 4.38153 0 8.7998C0 13.2181 3.58172 16.7998 8 16.7998ZM11.7071 7.50691C12.0976 7.11639 12.0976 6.48322 11.7071 6.0927C11.3166 5.70217 10.6834 5.70217 10.2929 6.0927L7 9.38559L5.70711 8.0927C5.31658 7.70217 4.68342 7.70217 4.29289 8.0927C3.90237 8.48322 3.90237 9.11639 4.29289 9.50691L6.29289 11.5069C6.68342 11.8974 7.31658 11.8974 7.70711 11.5069L11.7071 7.50691Z" fill="#635BFF"/>
</svg>
